<?xml version="1.0" encoding="UTF-8"?>
<svg id="Layer_2" data-name="Layer 2" xmlns="http://www.w3.org/2000/svg" viewBox="0 0 15.01173 12.52819">
  <path d="M13.102,.44705H2.32182C1.55726,.44705,.93524,1.06902,.93524,1.8336V10.79568c0,.76455,.62203,1.38653,1.38658,1.38653H13.102c.76458,0,1.38655-.62197,1.38655-1.38653V1.8336c0-.76458-.62197-1.38655-1.38655-1.38655Zm.56932,10.34863c0,.31445-.25492,.56929-.56932,.56929H2.32182c-.31445,0-.56934-.25484-.56934-.56929V1.8336c0-.31439,.2549-.56932,.56934-.56932H13.102c.31439,0,.56932,.25492,.56932,.56932V10.79568Z"/>
  <path d="M11.15769,6.63548l-1.76763,1.57076-3.01841-3.76077c-.17851-.2224-.52739-.23918-.72919-.03511l-3.20829,3.24493-.03465,2.77095c-.00245,.1932,.16353,.35109,.36912,.35109H12.65517c.2039,0,.36917-.15536,.36917-.34697v-2.33433l-1.16307-1.4096c-.17246-.20905-.49909-.23264-.70359-.05094Z"/>
  <path d="M11.17545,5.13925c.74295,0,1.34517-.60228,1.34517-1.34515,0-.74303-.60222-1.34526-1.34517-1.34526s-1.34526,.60222-1.34526,1.34526c0,.74287,.6023,1.34515,1.34526,1.34515Z"/>
</svg>