<?xml version="1.0" encoding="UTF-8"?>
<svg id="Layer_2" data-name="Layer 2" xmlns="http://www.w3.org/2000/svg" viewBox="0 0 18.68232 13.2235">
  <path d="M9.4208,3.91592c-1.74129,0-3.15789,1.4166-3.15789,3.15789,0,1.74115,1.4166,3.15775,3.15789,3.15775,1.74115,0,3.15775-1.4166,3.15775-3.15775,0-1.74129-1.4166-3.15789-3.15775-3.15789Z"/>
  <path d="M16.46376,1.61943H5.39413c.00877-.04462,.01403-.09058,.01403-.13773,0-.39391-.32237-.7162-.71628-.7162h-.80806c-.39394,0-.71623,.32229-.71623,.7162,0,.04715,.0052,.09311,.01403,.13773h-.80373c-.80302,0-1.46002,.65703-1.46002,1.46005v7.98875c0,.80299,.657,1.45997,1.46002,1.45997h14.08586c.80299,0,1.46002-.65698,1.46002-1.45997V3.07948c0-.80302-.65703-1.46005-1.46002-1.46005Zm-7.0429,9.38448c-2.17053,0-3.9301-1.75957-3.9301-3.9301s1.75957-3.93004,3.9301-3.93004,3.9301,1.75951,3.9301,3.93004-1.75957,3.9301-3.9301,3.9301Zm7.30001-6.65728c0,.13136-.10741,.23874-.23869,.23874h-2.31398c-.13136,0-.23877-.10739-.23877-.23874v-1.24882c0-.13128,.10741-.23874,.23877-.23874h2.31398c.13128,0,.23869,.10747,.23869,.23874v1.24882Z"/>
</svg>