<?xml version="1.0" encoding="UTF-8"?>
<svg id="Layer_2" data-name="Layer 2" xmlns="http://www.w3.org/2000/svg" viewBox="0 0 21.64702 22.02349">
  <g>
    <path d="M14.3881,18.20963H3.46624c-.88932,0-1.61306-.72374-1.61306-1.61306V3.08358c0-.88932,.72374-1.61306,1.61306-1.61306H14.3881c.88932,0,1.61306,.72374,1.61306,1.61306v13.513c0,.88932-.72374,1.61306-1.61306,1.61306Zm-10.78701-1.74791H14.25325V3.21843H3.60109v13.2433Z"/>
    <path d="M12.24802,6.24029H5.60589c-.48267,0-.87395-.32685-.87395-.73003h0c0-.40319,.39128-.73004,.87395-.73004h6.64213c.48267,0,.87395,.32685,.87395,.73003h0c0,.40319-.39128,.73004-.87395,.73004Z"/>
    <path d="M12.24802,9.18453H5.60589c-.48267,0-.87395-.32685-.87395-.73003h0c0-.40319,.39128-.73004,.87395-.73004h6.64213c.48267,0,.87395,.32685,.87395,.73003h0c0,.40319-.39128,.73004-.87395,.73004Z"/>
    <path d="M12.24802,12.12878H5.60589c-.48267,0-.87395-.32685-.87395-.73003h0c0-.40319,.39128-.73004,.87395-.73004h6.64213c.48267,0,.87395,.32685,.87395,.73003h0c0,.40319-.39128,.73004-.87395,.73004Z"/>
    <path d="M12.24802,15.07303H5.60589c-.48267,0-.87395-.32685-.87395-.73003h0c0-.40319,.39128-.73004,.87395-.73004h6.64213c.48267,0,.87395,.32685,.87395,.73003h0c0,.40319-.39128,.73004-.87395,.73004Z"/>
  </g>
  <path d="M18.02261,20.65398H6.08679c-.12734,0-.23058-.10323-.23058-.23058v-1.03884c0-.12734,.10323-.23058,.23058-.23058h10.43582c.12734,0,.23058-.10323,.23058-.23058V6.54569c0-.12734,.10323-.23058,.23058-.23058h1.03884c.12734,0,.23058,.10323,.23058,.23058v13.87771c0,.12734-.10323,.23058-.23058,.23058Z"/>
</svg>