<?xml version="1.0" encoding="UTF-8"?>
<svg id="Layer_2" data-name="Layer 2" xmlns="http://www.w3.org/2000/svg" viewBox="0 0 21.64702 22.02349">
  <g>
    <path d="M16.24986,21.25265c-.25391,0-.5083-.0957-.70312-.28906l-4.13916-4.0918c-.39258-.3877-.39648-1.02148-.00781-1.41406,.3877-.3916,1.02148-.39746,1.41406-.00781l4.13916,4.0918c.39258,.3877,.39648,1.02148,.00781,1.41406-.19531,.19727-.45312,.29688-.71094,.29688Z"/>
    <path d="M16.33775,21.25265c-.25781,0-.51562-.09863-.71094-.29688-.38867-.39258-.38477-1.02637,.00781-1.41406l4.13916-4.0918c.39258-.38965,1.02637-.38574,1.41406,.00781,.38867,.39258,.38477,1.02637-.00781,1.41406l-4.13916,4.0918c-.19482,.19336-.44922,.28906-.70312,.28906Z"/>
  </g>
  <path d="M16.2938,21.21359c-.55225,0-1-.44727-1-1V7.21359c0-.55273,.44775-1,1-1s1,.44727,1,1v13c0,.55273-.44775,1-1,1Z"/>
  <path d="M19.10435,4.16085H2.04527c-.55225,0-1-.44727-1-1s.44775-1,1-1H19.10435c.55225,0,1,.44727,1,1s-.44775,1-1,1Z"/>
  <path d="M10.28062,12.16085H2.04527c-.55225,0-1-.44727-1-1s.44775-1,1-1H10.28062c.55225,0,1,.44727,1,1s-.44775,1-1,1Z"/>
  <path d="M9.10435,20.16085H2.04527c-.55225,0-1-.44727-1-1s.44775-1,1-1h7.05908c.55225,0,1,.44727,1,1s-.44775,1-1,1Z"/>
</svg>