<?xml version="1.0" encoding="UTF-8"?>
<svg id="Layer_2" data-name="Layer 2" xmlns="http://www.w3.org/2000/svg" viewBox="0 0 21.64702 22.02349">
  <path d="M18.02126,20.39128h-4.28271c-1.10303,0-2-.89746-2-2v-4.79395h-1.6001v4.79395c0,1.10254-.89697,2-2,2H3.85622c-1.10303,0-2-.89746-2-2V8.27898c0-.66895,.33398-1.29004,.89258-1.66016,1.13867-.75391,2.30371-1.58105,3.43018-2.37988,1.19678-.84961,2.43457-1.72754,3.65869-2.53223,.66992-.43945,1.53418-.44043,2.20117-.00098h.00049c1.22559,.80664,2.46436,1.68555,3.66162,2.53516,1.12598,.79785,2.28955,1.62402,3.42773,2.37793,.55908,.37109,.89258,.99121,.89258,1.66016v10.1123c0,1.10254-.89697,2-2,2Zm-7.88281-8.79395h1.6001c1.10303,0,2,.89746,2,2v4.79395h4.28271V8.27898c-1.16211-.76465-2.33887-1.59961-3.47754-2.40723-1.18311-.83984-2.40674-1.70801-3.60254-2.49414h0c-.00098-.00098,.00098-.00195-.00537,0-1.19385,.78613-2.41699,1.65332-3.59961,2.49219-1.13916,.80859-2.31738,1.64453-3.48291,2.41699l.00293,10.10449h4.28223v-4.79395c0-1.10254,.89697-2,2-2Z"/>
</svg>