<?xml version="1.0" encoding="UTF-8"?>
<svg id="Layer_2" data-name="Layer 2" xmlns="http://www.w3.org/2000/svg" viewBox="0 0 21.5529 19.57643">
  <path d="M18.82655,.90523H2.88636C1.76527,.90523,.85646,1.81392,.85646,2.93501V12.83272c0,1.12109,.90881,2.02979,2.02991,2.02979h.24829l-.36609,4.04272,5.21106-4.04272h10.84692c1.12109,0,2.02991-.90869,2.02991-2.02979V2.93501c0-1.12109-.90881-2.02979-2.02991-2.02979ZM5.81849,8.90523c-.65405,0-1.18433-.53027-1.18433-1.18433s.53027-1.18408,1.18433-1.18408,1.18408,.53003,1.18408,1.18408-.53003,1.18433-1.18408,1.18433Zm5.31567,0c-.65393,0-1.18408-.53027-1.18408-1.18433s.53015-1.18408,1.18408-1.18408c.65405,0,1.18433,.53003,1.18433,1.18408s-.53027,1.18433-1.18433,1.18433Zm5.31592,0c-.65405,0-1.18433-.53027-1.18433-1.18433s.53027-1.18408,1.18433-1.18408,1.1842,.53003,1.1842,1.18408-.53015,1.18433-1.1842,1.18433Z"/>
</svg>