<?xml version="1.0" encoding="UTF-8"?>
<svg id="Layer_2" data-name="Layer 2" xmlns="http://www.w3.org/2000/svg" viewBox="0 0 21 21">
  <path d="M18.70412,20.60598H8.28084c-.99415,0-1.80008-.80592-1.80008-1.80008v-5.67063c0-.40936,.33185-.74121,.74121-.74121h0c.40936,0,.74121,.33185,.74121,.74121v5.18821c0,.44187,.35821,.80008,.80008,.80008h9.45844c.44187,0,.80008-.35821,.80008-.80008V2.67656c0-.44187-.35821-.80008-.80008-.80008H8.76326c-.44187,0-.80008,.35821-.80008,.80008V7.53567c0,.40936-.33185,.74121-.74121,.74121h0c-.40936,0-.74121-.33185-.74121-.74121V2.19414c0-.99415,.80592-1.80008,1.80008-1.80008h10.42329c.99415,0,1.80008,.80592,1.80008,1.80008V18.8059c0,.99415-.80592,1.80008-1.80008,1.80008Z"/>
  <path d="M.2065,9.90114c-.12536,.11941-.18805,.27969-.18805,.43997,0,.14917,.05475,.29873,.16424,.41616l3.34042,3.5725c.2301,.24597,.61572,.25866,.86168,.02896,.24438-.2297,.25787-.61572,.02856-.86129l-2.34821-2.51126H11.33779c.33642,0,.60937-.27295,.60937-.60937s-.27295-.60937-.60937-.60937H2.10721l2.33948-2.24109c.24438-.23367,.25152-.61849,.01904-.86168-.23327-.2428-.61889-.25113-.86168-.01825L.2065,9.90114Z"/>
</svg>