<?xml version="1.0" encoding="UTF-8"?>
<svg id="Layer_2" data-name="Layer 2" xmlns="http://www.w3.org/2000/svg" viewBox="0 0 18.50267 19.56273">
  <path d="M17.44961,1.56569c-.39502-.38477-1.02881-.37891-1.41406,.01758l-6.78406,6.95557L2.46718,1.58327c-.38525-.39648-1.01904-.40234-1.41406-.01758-.39551,.38574-.40332,1.01855-.01758,1.41406l6.81909,6.99121L1.40566,16.58327c-.38574,.39551-.37793,1.02832,.01758,1.41406,.19434,.18945,.44629,.28418,.69824,.28418,.26025,0,.52002-.10059,.71582-.30176l6.41418-6.57666,6.41443,6.57666c.1958,.20117,.45557,.30176,.71582,.30176,.25195,0,.50391-.09473,.69824-.28418,.39551-.38574,.40332-1.01855,.01758-1.41406l-6.44922-6.6123,6.81885-6.99121c.38574-.39551,.37793-1.02832-.01758-1.41406Z"/>
</svg>