<?xml version="1.0" encoding="UTF-8"?>
<svg id="Layer_2" data-name="Layer 2" xmlns="http://www.w3.org/2000/svg" viewBox="0 0 11.8588 17.15291">
  <path d="M1.64824,9.5949c-.26807,0-.53564-.10742-.73291-.31934-.37549-.40527-.35205-1.03711,.05225-1.41309L8.65556,.72283c.40479-.37598,1.03662-.35352,1.41357,.05176,.37549,.40527,.35205,1.03711-.05225,1.41309L2.3289,9.32732c-.19287,.17871-.43701,.26758-.68066,.26758Z"/>
  <path d="M9.33622,16.73357c-.24365,0-.48779-.08887-.68066-.26758L.96757,9.32732c-.4043-.375-.42773-1.00781-.05225-1.41309,.37695-.4043,1.0083-.42676,1.41357-.05176l7.68799,7.13867c.4043,.375,.42773,1.00781,.05225,1.41309-.19727,.21191-.46484,.31934-.73291,.31934Z"/>
</svg>