<?xml version="1.0" encoding="UTF-8"?>
<svg id="Layer_2" data-name="Layer 2" xmlns="http://www.w3.org/2000/svg" viewBox="0 0 7.36469 12.3235">
  <path d="M.81784,11.98188c-.13428,0-.26807-.05371-.36621-.16016-.18799-.20215-.17627-.51855,.02588-.70605L6.20652,5.79536c.20166-.18848,.51904-.17773,.70654,.02637,.18799,.20215,.17627,.51855-.02588,.70605L1.15818,11.84809c-.09619,.08984-.21826,.13379-.34033,.13379Z"/>
  <path d="M6.54685,6.66157c-.12207,0-.24414-.04395-.34033-.13379L.47751,1.20844c-.20215-.1875-.21387-.50391-.02588-.70605,.18701-.20312,.50439-.21582,.70654-.02637L6.88718,5.79536c.20215,.1875,.21387,.50391,.02588,.70605-.09814,.10645-.23193,.16016-.36621,.16016Z"/>
</svg>